<?xml version="1.0" encoding="UTF-8" standalone="no"?>
<!DOCTYPE svg PUBLIC "-//W3C//DTD SVG 1.1//EN"
 "http://www.w3.org/Graphics/SVG/1.1/DTD/svg11.dtd">
<!-- Generated by graphviz version 16.1.0 (20260904.0139)
 -->
<!-- Title: G Pages: 1 -->
<svg width="803pt" height="260pt"
 viewBox="0.00 0.00 803.00 260.00" xmlns="http://www.w3.org/2000/svg" xmlns:xlink="http://www.w3.org/1999/xlink">
<g id="graph0" class="graph" transform="scale(1 1) rotate(0) translate(4 256.48)">
<title>G</title><style>.edge>path:hover{stroke-width:8}</style>
<polygon fill="white" stroke="none" points="-4,4 -4,-256.48 798.81,-256.48 798.81,4 -4,4"/>
<!-- bs4 -->
<g id="node1" class="node">
<title>bs4</title><style>.edge>path:hover{stroke-width:8}</style>
<ellipse fill="#c04040" stroke="black" cx="37.13" cy="-234.48" rx="27" ry="18"/>
<text xml:space="preserve" text-anchor="middle" x="37.13" y="-230.98" font-family="Helvetica,sans-Serif" font-size="10.00" fill="#ffffff">bs4</text>
</g>
<!-- src_scrape -->
<g id="node15" class="node">
<title>src_scrape</title><style>.edge>path:hover{stroke-width:8}</style>
<ellipse fill="#6a4cb3" stroke="black" cx="37.13" cy="-120.85" rx="37.13" ry="18"/>
<text xml:space="preserve" text-anchor="middle" x="37.13" y="-117.35" font-family="Helvetica,sans-Serif" font-size="10.00" fill="#ffffff">src.scrape</text>
</g>
<!-- bs4&#45;&gt;src_scrape -->
<g id="edge1" class="edge">
<title>bs4&#45;&gt;src_scrape</title><style>.edge>path:hover{stroke-width:8}</style>
<path fill="none" stroke="black" d="M37.13,-216.04C37.13,-198.51 37.13,-171.19 37.13,-150.48"/>
<polygon fill="#c04040" stroke="black" points="40.63,-150.69 37.13,-140.69 33.63,-150.69 40.63,-150.69"/>
</g>
<!-- flask -->
<g id="node2" class="node">
<title>flask</title><style>.edge>path:hover{stroke-width:8}</style>
<ellipse fill="#ccb633" stroke="black" cx="109.13" cy="-234.48" rx="27" ry="18"/>
<text xml:space="preserve" text-anchor="middle" x="109.13" y="-230.98" font-family="Helvetica,sans-Serif" font-size="10.00" fill="#000000">flask</text>
</g>
<!-- src_app -->
<g id="node8" class="node">
<title>src_app</title><style>.edge>path:hover{stroke-width:8}</style>
<ellipse fill="#6a4cb3" stroke="black" cx="151.13" cy="-120.85" rx="29.01" ry="18"/>
<text xml:space="preserve" text-anchor="middle" x="151.13" y="-117.35" font-family="Helvetica,sans-Serif" font-size="10.00" fill="#ffffff">src.app</text>
</g>
<!-- flask&#45;&gt;src_app -->
<g id="edge2" class="edge">
<title>flask&#45;&gt;src_app</title><style>.edge>path:hover{stroke-width:8}</style>
<path fill="none" stroke="black" d="M170.13,-179.48C175.53,-169.6 173.11,-157.93 168.46,-147.68"/>
<polygon fill="#ccb633" stroke="black" points="171.59,-146.11 163.76,-138.98 165.44,-149.44 171.59,-146.11"/>
<path fill="none" stroke="black" d="M128.96,-221.71C142.85,-212.35 160.57,-197.96 170.13,-180.48"/>
</g>
<!-- src_llm_hosting_app -->
<g id="node10" class="node">
<title>src_llm_hosting_app</title><style>.edge>path:hover{stroke-width:8}</style>
<ellipse fill="#6549ac" stroke="black" cx="208.13" cy="-31.11" rx="48.44" ry="31.11"/>
<text xml:space="preserve" text-anchor="middle" x="208.13" y="-39.61" font-family="Helvetica,sans-Serif" font-size="10.00" fill="#ffffff">src.</text>
<text xml:space="preserve" text-anchor="middle" x="208.13" y="-27.61" font-family="Helvetica,sans-Serif" font-size="10.00" fill="#ffffff">llm_hosting.</text>
<text xml:space="preserve" text-anchor="middle" x="208.13" y="-15.61" font-family="Helvetica,sans-Serif" font-size="10.00" fill="#ffffff">app</text>
</g>
<!-- flask&#45;&gt;src_llm_hosting_app -->
<g id="edge3" class="edge">
<title>flask&#45;&gt;src_llm_hosting_app</title><style>.edge>path:hover{stroke-width:8}</style>
<path fill="none" stroke="black" d="M170.13,-179.48C184.85,-152.56 203,-152.1 208.13,-121.85"/>
<path fill="none" stroke="black" d="M208.13,-119.85C210.67,-104.92 211.23,-88.35 210.98,-73.67"/>
<polygon fill="#ccb633" stroke="black" points="214.48,-73.77 210.67,-63.89 207.49,-73.99 214.48,-73.77"/>
</g>
<!-- huggingface_hub -->
<g id="node3" class="node">
<title>huggingface_hub</title><style>.edge>path:hover{stroke-width:8}</style>
<ellipse fill="#70b653" stroke="black" cx="208.13" cy="-234.48" rx="53.82" ry="18"/>
<text xml:space="preserve" text-anchor="middle" x="208.13" y="-230.98" font-family="Helvetica,sans-Serif" font-size="10.00" fill="#000000">huggingface_hub</text>
</g>
<!-- huggingface_hub&#45;&gt;src_llm_hosting_app -->
<g id="edge4" class="edge">
<title>huggingface_hub&#45;&gt;src_llm_hosting_app</title><style>.edge>path:hover{stroke-width:8}</style>
<path fill="none" stroke="black" d="M206.5,-216.33C204.77,-194.31 202.94,-154.98 208.13,-121.85"/>
</g>
<!-- psycopg -->
<g id="node4" class="node">
<title>psycopg</title><style>.edge>path:hover{stroke-width:8}</style>
<ellipse fill="#33cc8a" stroke="black" cx="312.13" cy="-234.48" rx="31.72" ry="18"/>
<text xml:space="preserve" text-anchor="middle" x="312.13" y="-230.98" font-family="Helvetica,sans-Serif" font-size="10.00" fill="#000000">psycopg</text>
</g>
<!-- src_load_data -->
<g id="node11" class="node">
<title>src_load_data</title><style>.edge>path:hover{stroke-width:8}</style>
<ellipse fill="#6a4cb3" stroke="black" cx="302.13" cy="-120.85" rx="44.8" ry="18"/>
<text xml:space="preserve" text-anchor="middle" x="302.13" y="-117.35" font-family="Helvetica,sans-Serif" font-size="10.00" fill="#ffffff">src.load_data</text>
</g>
<!-- psycopg&#45;&gt;src_load_data -->
<g id="edge5" class="edge">
<title>psycopg&#45;&gt;src_load_data</title><style>.edge>path:hover{stroke-width:8}</style>
<path fill="none" stroke="black" d="M312.13,-179.48C315.32,-170.12 314.63,-159.54 312.56,-150.02"/>
<polygon fill="#33cc8a" stroke="black" points="315.98,-149.24 309.92,-140.55 309.23,-151.13 315.98,-149.24"/>
<path fill="none" stroke="black" d="M309.38,-216.32C308.34,-205.71 308.22,-191.98 312.13,-180.48"/>
</g>
<!-- src_query_data -->
<g id="node14" class="node">
<title>src_query_data</title><style>.edge>path:hover{stroke-width:8}</style>
<ellipse fill="#6549ac" stroke="black" cx="413.13" cy="-120.85" rx="48.41" ry="18"/>
<text xml:space="preserve" text-anchor="middle" x="413.13" y="-117.35" font-family="Helvetica,sans-Serif" font-size="10.00" fill="#ffffff">src.query_data</text>
</g>
<!-- psycopg&#45;&gt;src_query_data -->
<g id="edge6" class="edge">
<title>psycopg&#45;&gt;src_query_data</title><style>.edge>path:hover{stroke-width:8}</style>
<path fill="none" stroke="black" d="M312.13,-179.48C316.58,-166.42 345.06,-150.88 370.65,-139.23"/>
<polygon fill="#33cc8a" stroke="black" points="371.88,-142.51 379.61,-135.27 369.05,-136.11 371.88,-142.51"/>
</g>
<!-- psycopg_sql -->
<g id="node5" class="node">
<title>psycopg_sql</title><style>.edge>path:hover{stroke-width:8}</style>
<ellipse fill="#53b68c" stroke="black" cx="413.13" cy="-234.48" rx="41.19" ry="18"/>
<text xml:space="preserve" text-anchor="middle" x="413.13" y="-230.98" font-family="Helvetica,sans-Serif" font-size="10.00" fill="#000000">psycopg.sql</text>
</g>
<!-- psycopg_sql&#45;&gt;src_query_data -->
<g id="edge7" class="edge">
<title>psycopg_sql&#45;&gt;src_query_data</title><style>.edge>path:hover{stroke-width:8}</style>
<path fill="none" stroke="black" d="M413.13,-216.04C413.13,-198.51 413.13,-171.19 413.13,-150.48"/>
<polygon fill="#53b68c" stroke="black" points="416.63,-150.69 413.13,-140.69 409.63,-150.69 416.63,-150.69"/>
</g>
<!-- sqlalchemy -->
<g id="node6" class="node">
<title>sqlalchemy</title><style>.edge>path:hover{stroke-width:8}</style>
<ellipse fill="#268cd9" stroke="black" cx="526.13" cy="-234.48" rx="39.39" ry="18"/>
<text xml:space="preserve" text-anchor="middle" x="526.13" y="-230.98" font-family="Helvetica,sans-Serif" font-size="10.00" fill="#ffffff">sqlalchemy</text>
</g>
<!-- src_models -->
<g id="node12" class="node">
<title>src_models</title><style>.edge>path:hover{stroke-width:8}</style>
<ellipse fill="#6549ac" stroke="black" cx="633.13" cy="-120.85" rx="38.49" ry="18"/>
<text xml:space="preserve" text-anchor="middle" x="633.13" y="-117.35" font-family="Helvetica,sans-Serif" font-size="10.00" fill="#ffffff">src.models</text>
</g>
<!-- sqlalchemy&#45;&gt;src_models -->
<g id="edge8" class="edge">
<title>sqlalchemy&#45;&gt;src_models</title><style>.edge>path:hover{stroke-width:8}</style>
<path fill="none" stroke="black" d="M528.13,-179.48C531.06,-172.17 567.25,-153.35 596.34,-139.19"/>
<polygon fill="#268cd9" stroke="black" points="597.81,-142.37 605.3,-134.87 594.77,-136.07 597.81,-142.37"/>
</g>
<!-- src_orm_queries -->
<g id="node13" class="node">
<title>src_orm_queries</title><style>.edge>path:hover{stroke-width:8}</style>
<ellipse fill="#6a4cb3" stroke="black" cx="528.13" cy="-120.85" rx="48.97" ry="22.63"/>
<text xml:space="preserve" text-anchor="middle" x="528.13" y="-123.35" font-family="Helvetica,sans-Serif" font-size="10.00" fill="#ffffff">src.</text>
<text xml:space="preserve" text-anchor="middle" x="528.13" y="-111.35" font-family="Helvetica,sans-Serif" font-size="10.00" fill="#ffffff">orm_queries</text>
</g>
<!-- sqlalchemy&#45;&gt;src_orm_queries -->
<g id="edge9" class="edge">
<title>sqlalchemy&#45;&gt;src_orm_queries</title><style>.edge>path:hover{stroke-width:8}</style>
<path fill="none" stroke="black" d="M523.9,-216.16C523.22,-205.5 523.61,-191.76 528.13,-180.48"/>
<path fill="none" stroke="black" d="M528.13,-179.48C531.2,-171.84 532.29,-163.17 532.37,-154.9"/>
<polygon fill="#268cd9" stroke="black" points="535.87,-155.01 531.96,-145.17 528.88,-155.3 535.87,-155.01"/>
</g>
<!-- sqlalchemy_orm -->
<g id="node7" class="node">
<title>sqlalchemy_orm</title><style>.edge>path:hover{stroke-width:8}</style>
<ellipse fill="#3d83b8" stroke="black" cx="634.13" cy="-234.48" rx="50.66" ry="18"/>
<text xml:space="preserve" text-anchor="middle" x="634.13" y="-230.98" font-family="Helvetica,sans-Serif" font-size="10.00" fill="#ffffff">sqlalchemy.orm</text>
</g>
<!-- sqlalchemy_orm&#45;&gt;src_models -->
<g id="edge10" class="edge">
<title>sqlalchemy_orm&#45;&gt;src_models</title><style>.edge>path:hover{stroke-width:8}</style>
<path fill="none" stroke="black" d="M633.98,-216.04C633.82,-198.51 633.57,-171.19 633.39,-150.48"/>
<polygon fill="#3d83b8" stroke="black" points="636.89,-150.65 633.3,-140.69 629.89,-150.72 636.89,-150.65"/>
</g>
<!-- src_capture_page -->
<g id="node9" class="node">
<title>src_capture_page</title><style>.edge>path:hover{stroke-width:8}</style>
<ellipse fill="#6a4cb3" stroke="black" cx="742.13" cy="-120.85" rx="52.68" ry="22.63"/>
<text xml:space="preserve" text-anchor="middle" x="742.13" y="-123.35" font-family="Helvetica,sans-Serif" font-size="10.00" fill="#ffffff">src.</text>
<text xml:space="preserve" text-anchor="middle" x="742.13" y="-111.35" font-family="Helvetica,sans-Serif" font-size="10.00" fill="#ffffff">capture_page</text>
</g>
<!-- websocket -->
<g id="node16" class="node">
<title>websocket</title><style>.edge>path:hover{stroke-width:8}</style>
<ellipse fill="#b653a8" stroke="black" cx="742.13" cy="-234.48" rx="38.03" ry="18"/>
<text xml:space="preserve" text-anchor="middle" x="742.13" y="-230.98" font-family="Helvetica,sans-Serif" font-size="10.00" fill="#ffffff">websocket</text>
</g>
<!-- websocket&#45;&gt;src_capture_page -->
<g id="edge11" class="edge">
<title>websocket&#45;&gt;src_capture_page</title><style>.edge>path:hover{stroke-width:8}</style>
<path fill="none" stroke="black" d="M742.13,-216.04C742.13,-199.81 742.13,-175.21 742.13,-155.21"/>
<polygon fill="#b653a8" stroke="black" points="745.63,-155.29 742.13,-145.29 738.63,-155.29 745.63,-155.29"/>
</g>
</g>
</svg>
